# xmcd CD database file
#
# Track frame offsets:
#	150
#	14952
#	29663
#	46428
#	60140
#	75309
#	97036
#	111242
#	123161
#	135852
#	149993
#	167631
#	168081
#	184804
#
# Disc length: 2710 seconds
#
# Revision: 0
# Processed by: cddbd v1.5PL3 Copyright (c) Steve Scherf et al.
# Submitted via: ACXtractor (MTCDDB.DLL V2003.07.15)
#
DISCID=bc0a940e
DTITLE=Daniel O'Donnell - Love Songs
DYEAR=2004
DGENRE=Country
TTITLE0=The magic is there
TTITLE1=Then you can tell me goodbye
TTITLE2=For the good times
TTITLE3=Halfway to paradise
TTITLE4=The way dreams are
TTITLE5=Let me be the one
TTITLE6=Spanish eyes
TTITLE7=Sealed with a kiss
TTITLE8=Hello Darlin'
TTITLE9=Smooth sailin'
TTITLE10=Somewhere
TTITLE11=Lay down beside me
TTITLE12=Love me tender
TTITLE13=Give a little love
EXTD=ID3G:   2 YEAR: 2004
EXTT0=
EXTT1=
EXTT2=
EXTT3=
EXTT4=
EXTT5=
EXTT6=
EXTT7=
EXTT8=
EXTT9=
EXTT10=
EXTT11=
EXTT12=
EXTT13=
PLAYORDER=
